<?xml version="1.0" encoding="UTF-8"?>
<svg xmlns="http://www.w3.org/2000/svg" xmlns:xlink="http://www.w3.org/1999/xlink" width="1360px" height="883px" viewBox="0 0 1359 883" version="1.1">
<defs>
<clipPath id="clip1">
  <path d="M 8.988281 0 L 1350.011719 0 C 1354.976562 0 1359 4.027344 1359 8.992188 L 1359 874.007812 C 1359 878.972656 1354.976562 883 1350.011719 883 L 8.988281 883 C 4.023438 883 0 878.972656 0 874.007812 L 0 8.992188 C 0 4.027344 4.023438 0 8.988281 0 Z M 8.988281 0 "/>
</clipPath>
<filter id="alpha" filterUnits="objectBoundingBox" x="0%" y="0%" width="100%" height="100%">
  <feColorMatrix type="matrix" in="SourceGraphic" values="0 0 0 0 1 0 0 0 0 1 0 0 0 0 1 0 0 0 1 0"/>
</filter>
<mask id="mask0">
  <g filter="url(#alpha)">
<rect x="0" y="0" width="1359" height="883" style="fill:rgb(0%,0%,0%);fill-opacity:0.6;stroke:none;"/>
  </g>
</mask>
<clipPath id="clip2">
  <rect x="0" y="0" width="1359" height="883"/>
</clipPath>
<g id="surface5" clip-path="url(#clip2)">
<path style=" stroke:none;fill-rule:nonzero;fill:rgb(90.588235%,76.078431%,99.607843%);fill-opacity:1;" d="M 549.582031 -309.414062 L 941.117188 -64.089844 C 980.660156 -39.3125 992.640625 12.84375 967.875 52.40625 C 943.105469 91.96875 890.96875 103.953125 851.425781 79.175781 L 459.890625 -166.148438 C 420.34375 -190.925781 408.363281 -243.082031 433.132812 -282.644531 C 457.898438 -322.207031 510.035156 -334.191406 549.582031 -309.414062 Z M 549.582031 -309.414062 "/>
<path style=" stroke:none;fill-rule:nonzero;fill:rgb(65.882353%,70.588235%,100%);fill-opacity:1;" d="M 507.335938 -136.769531 L 898.871094 108.554688 C 938.417969 133.332031 950.398438 185.488281 925.628906 225.050781 C 900.863281 264.613281 848.726562 276.597656 809.179688 251.820312 L 417.644531 6.496094 C 378.097656 -18.28125 366.121094 -70.441406 390.886719 -110 C 415.65625 -149.5625 467.792969 -161.550781 507.335938 -136.769531 Z M 507.335938 -136.769531 "/>
</g>
<mask id="mask1">
  <g filter="url(#alpha)">
<rect x="0" y="0" width="1359" height="883" style="fill:rgb(0%,0%,0%);fill-opacity:0.6;stroke:none;"/>
  </g>
</mask>
<clipPath id="clip3">
  <rect x="0" y="0" width="1359" height="883"/>
</clipPath>
<g id="surface8" clip-path="url(#clip3)">
<path style=" stroke:none;fill-rule:nonzero;fill:rgb(90.588235%,76.078431%,99.607843%);fill-opacity:1;" d="M 1231.777344 568.191406 L 1623.3125 813.515625 C 1662.859375 838.292969 1674.839844 890.449219 1650.070312 930.011719 C 1625.304688 969.574219 1573.167969 981.558594 1533.621094 956.78125 L 1142.085938 711.457031 C 1102.539062 686.679688 1090.5625 634.523438 1115.328125 594.960938 C 1140.097656 555.398438 1192.230469 543.414062 1231.777344 568.191406 Z M 1231.777344 568.191406 "/>
<path style=" stroke:none;fill-rule:nonzero;fill:rgb(65.882353%,70.588235%,100%);fill-opacity:1;" d="M 1184.140625 733.640625 L 1575.675781 978.964844 C 1615.222656 1003.742188 1627.203125 1055.898438 1602.433594 1095.460938 C 1577.667969 1135.023438 1525.53125 1147.007812 1485.984375 1122.230469 L 1094.449219 876.90625 C 1054.902344 852.128906 1042.925781 799.972656 1067.691406 760.410156 C 1092.460938 720.847656 1144.59375 708.863281 1184.140625 733.640625 Z M 1184.140625 733.640625 "/>
</g>
<mask id="mask2">
  <g filter="url(#alpha)">
<rect x="0" y="0" width="1359" height="883" style="fill:rgb(0%,0%,0%);fill-opacity:0.6;stroke:none;"/>
  </g>
</mask>
<clipPath id="clip4">
  <rect x="0" y="0" width="1359" height="883"/>
</clipPath>
<g id="surface11" clip-path="url(#clip4)">
<path style=" stroke:none;fill-rule:nonzero;fill:rgb(65.882353%,70.588235%,100%);fill-opacity:1;" d="M -70.597656 449.496094 L 320.9375 694.820312 C 360.484375 719.601562 372.460938 771.757812 347.695312 811.320312 C 322.925781 850.882812 270.789062 862.867188 231.246094 838.089844 L -160.289062 592.765625 C -199.835938 567.988281 -211.816406 515.828125 -187.046875 476.265625 C -162.28125 436.703125 -110.144531 424.71875 -70.597656 449.496094 Z M -70.597656 449.496094 "/>
<path style=" stroke:none;fill-rule:nonzero;fill:rgb(90.588235%,76.078431%,99.607843%);fill-opacity:1;" d="M -118.234375 614.949219 L 273.300781 860.273438 C 312.847656 885.050781 324.824219 937.207031 300.058594 976.769531 C 275.289062 1016.332031 223.152344 1028.316406 183.609375 1003.539062 L -207.925781 758.214844 C -247.472656 733.4375 -259.453125 681.277344 -234.683594 641.71875 C -209.917969 602.15625 -157.78125 590.171875 -118.234375 614.949219 Z M -118.234375 614.949219 "/>
</g>
<clipPath id="clip5">
  <path d="M 620 0 L 680 0 L 680 1 L 620 1 Z M 620 0 "/>
</clipPath>
<clipPath id="clip6">
  <path d="M 8.988281 0 L 1350.011719 0 C 1354.976562 0 1359 4.027344 1359 8.992188 L 1359 874.007812 C 1359 878.972656 1354.976562 883 1350.011719 883 L 8.988281 883 C 4.023438 883 0 878.972656 0 874.007812 L 0 8.992188 C 0 4.027344 4.023438 0 8.988281 0 Z M 8.988281 0 "/>
</clipPath>
<linearGradient id="linear0" gradientUnits="userSpaceOnUse" x1="723.795" y1="-52.8162" x2="723.795" y2="-27.3938" gradientTransform="matrix(0.89881,0,0,0.899185,0,0)">
<stop offset="0" style="stop-color:rgb(81.176471%,50.588235%,98.431373%);stop-opacity:1;"/>
<stop offset="1" style="stop-color:rgb(58.039216%,63.921569%,100%);stop-opacity:1;"/>
</linearGradient>
</defs>
<g id="surface1">
<g clip-path="url(#clip1)" clip-rule="nonzero">
<path style=" stroke:none;fill-rule:nonzero;fill:rgb(100%,100%,100%);fill-opacity:1;" d="M 8.988281 0 L 1350.011719 0 C 1354.976562 0 1359 4.027344 1359 8.992188 L 1359 874.007812 C 1359 878.972656 1354.976562 883 1350.011719 883 L 8.988281 883 C 4.023438 883 0 878.972656 0 874.007812 L 0 8.992188 C 0 4.027344 4.023438 0 8.988281 0 Z M 8.988281 0 "/>
<use xlink:href="#surface5" mask="url(#mask0)"/>
<use xlink:href="#surface8" mask="url(#mask1)"/>
<use xlink:href="#surface11" mask="url(#mask2)"/>
</g>
<g clip-path="url(#clip5)" clip-rule="nonzero">
<g clip-path="url(#clip6)" clip-rule="nonzero">
<path style=" stroke:none;fill-rule:nonzero;fill:url(#linear0);" d="M 636.355469 -52.757812 L 621.144531 -41.402344 C 620.085938 -40.589844 619.855469 -39.078125 620.664062 -37.988281 C 620.824219 -37.777344 621.007812 -37.59375 621.214844 -37.453125 L 674.566406 -0.457031 C 675.789062 0.402344 677.472656 0.078125 678.300781 -1.152344 C 678.601562 -1.59375 678.761719 -2.128906 678.785156 -2.664062 L 679.5 -63.8125 C 679.5 -64.605469 679.152344 -65.324219 678.53125 -65.8125 L 673.371094 -69.828125 C 672.285156 -70.664062 670.742188 -70.480469 669.914062 -69.386719 C 669.566406 -68.945312 669.382812 -68.414062 669.40625 -67.855469 L 669.613281 -15.925781 L 640.25 -37.058594 C 639.167969 -37.847656 638.914062 -39.359375 639.699219 -40.449219 C 639.8125 -40.613281 639.976562 -40.773438 640.136719 -40.914062 L 644.515625 -44.515625 C 645.550781 -45.375 645.691406 -46.90625 644.859375 -47.929688 C 644.816406 -47.996094 644.769531 -48.042969 644.699219 -48.113281 L 640.390625 -52.457031 C 639.285156 -53.546875 637.578125 -53.6875 636.355469 -52.757812 Z M 636.355469 -52.757812 "/>
</g>
</g>
</g>
</svg>
