<svg width="66" height="94" viewBox="0 0 66 94" fill="none" xmlns="http://www.w3.org/2000/svg">
<path d="M17.9996 34.3256L1.07641 46.9561C-0.10309 47.8601 -0.359503 49.539 0.53794 50.753C0.717429 50.9854 0.922559 51.1921 1.15333 51.3471L60.5128 92.493C61.8718 93.4487 63.7436 93.0871 64.6667 91.7181C65 91.2274 65.1795 90.6333 65.2051 90.0392L66 22.0309C66 21.1527 65.6154 20.352 64.9231 19.8096L59.1794 15.3411C57.9743 14.4113 56.2563 14.6179 55.3333 15.8319C54.9486 16.3226 54.7435 16.9167 54.7691 17.5366L54.9999 75.2907L22.333 51.7862C21.1278 50.908 20.8458 49.2291 21.7176 48.0151C21.8458 47.8343 22.0253 47.6535 22.2048 47.4985L27.0766 43.495C28.2305 42.5393 28.3843 40.8346 27.4612 39.6981C27.4099 39.6206 27.3587 39.5689 27.2817 39.4914L22.4868 34.6614C21.2561 33.4474 19.3586 33.2924 17.9996 34.3256Z" fill="url(#paint0_linear_9_126)"/>
<path d="M49.0256 10.821L24.4356 29.4438C23.4869 30.1671 23.2818 31.536 23.9997 32.4917C24.0254 32.5434 24.0766 32.595 24.1279 32.6467L30.0767 39.3364C30.7434 40.0855 31.8716 40.163 32.6408 39.5173L38.2562 34.6872C39.1024 33.964 40.3845 34.0415 41.1281 34.9196C41.4614 35.3071 41.6409 35.8237 41.6152 36.3144L41.1537 49.694C41.1024 50.8046 40.205 51.657 39.1024 51.6312C38.6409 51.6053 38.205 51.4504 37.8716 51.1404L35.1537 48.7125C34.3075 47.9634 32.9998 48.0409 32.2562 48.8933L32.2305 48.9191L30.8972 50.5205C30.1793 51.3987 30.2818 52.6902 31.1536 53.4392C31.1793 53.465 31.2305 53.4909 31.2562 53.5167L48.282 66.018C49.2563 66.7671 50.641 66.5605 51.3845 65.5789C51.6666 65.1915 51.8204 64.7266 51.8204 64.2358V23.0382C51.8204 21.8759 50.8974 20.946 49.7435 20.946C49.2563 20.946 48.7948 21.101 48.4358 21.411L34.5895 32.8275C33.7947 33.4732 32.6408 33.3699 31.9998 32.5692C31.9741 32.5434 31.9485 32.4917 31.9229 32.4659C31.2305 31.5102 31.4613 30.1671 32.3844 29.4438L51.8717 14.7212C52.6666 14.1013 52.923 13.0165 52.4615 12.1124L52.1794 11.5442C51.6666 10.511 50.4102 10.0719 49.3845 10.5885C49.2307 10.6918 49.1281 10.7435 49.0256 10.821Z" fill="url(#paint1_linear_9_126)"/>
<path d="M56.8205 5.11267L63.1282 0.360093C63.9231 -0.233979 65.0513 -0.0790038 65.641 0.721702C65.8718 1.03165 66 1.41909 66 1.80653V11.57C66 12.5773 65.2051 13.378 64.2051 13.378C63.8205 13.378 63.4359 13.2489 63.1026 12.9906L56.7948 8.08303C55.9743 7.4373 55.8461 6.27499 56.4615 5.44845C56.5897 5.3193 56.6923 5.21599 56.8205 5.11267Z" fill="url(#paint2_linear_9_126)"/>
<defs>
<linearGradient id="paint0_linear_9_126" x1="33.7954" y1="40.1838" x2="33.7954" y2="65.6062" gradientUnits="userSpaceOnUse">
<stop stop-color="#CF81FB"/>
<stop offset="1" stop-color="#94A3FF"/>
</linearGradient>
<linearGradient id="paint1_linear_9_126" x1="38.481" y1="28.593" x2="38.481" y2="46.8146" gradientUnits="userSpaceOnUse">
<stop stop-color="#CF81FB"/>
<stop offset="1" stop-color="#94A3FF"/>
</linearGradient>
<linearGradient id="paint2_linear_9_126" x1="61.1575" y1="4.34538" x2="61.1575" y2="8.69075" gradientUnits="userSpaceOnUse">
<stop stop-color="#CF81FB"/>
<stop offset="1" stop-color="#94A3FF"/>
</linearGradient>
</defs>
</svg>
