<svg width="1512" height="982" viewBox="1512 982" fill="none" xmlns="http://www.w3.org/2000/svg">
<g clip-path="url(#clip0_6_86)">
<rect width="1512" height="982" rx="10" fill="white"/>
<g opacity="0.6">
<rect x="531.79" y="-394" width="702" height="188" rx="94" transform="rotate(32.0592 531.79 -394)" fill="#E7C2FE"/>
<rect x="484.79" y="-202" width="702" height="188" rx="94" transform="rotate(32.0592 484.79 -202)" fill="#A8B4FF"/>
</g>
<g opacity="0.6">
<rect x="1290.79" y="582" width="702" height="188" rx="94" transform="rotate(32.0592 1290.79 582)" fill="#E7C2FE"/>
<rect x="1237.79" y="766" width="702" height="188" rx="94" transform="rotate(32.0592 1237.79 766)" fill="#A8B4FF"/>
</g>
<g opacity="0.6">
<rect x="-158.21" y="450" width="702" height="188" rx="94" transform="rotate(32.0592 -158.21 450)" fill="#A8B4FF"/>
<rect x="-211.21" y="634" width="702" height="188" rx="94" transform="rotate(32.0592 -211.21 634)" fill="#E7C2FE"/>
</g>
<path d="M40.9996 51.3256L24.0764 63.9561C22.8969 64.8601 22.6405 66.539 23.5379 67.753C23.7174 67.9854 23.9226 68.1921 24.1533 68.3471L83.5128 109.493C84.8718 110.449 86.7436 110.087 87.6667 108.718C88 108.227 88.1795 107.633 88.2051 107.039L89 39.0309C89 38.1527 88.6154 37.352 87.9231 36.8096L82.1794 32.3411C80.9743 31.4113 79.2563 31.6179 78.3333 32.8319C77.9486 33.3226 77.7435 33.9167 77.7691 34.5366L77.9999 92.2907L45.333 68.7862C44.1278 67.908 43.8458 66.2291 44.7176 65.0151C44.8458 64.8343 45.0253 64.6535 45.2048 64.4985L50.0766 60.495C51.2305 59.5393 51.3843 57.8346 50.4612 56.6981C50.4099 56.6206 50.3587 56.5689 50.2817 56.4914L45.4868 51.6614C44.2561 50.4474 42.3586 50.2924 40.9996 51.3256Z" fill="url(#paint0_linear_6_86)"/>
<path d="M72.0257 27.821L47.4357 46.4438C46.487 47.1671 46.2819 48.536 46.9998 49.4917C47.0255 49.5434 47.0768 49.595 47.128 49.6467L53.0768 56.3364C53.7435 57.0855 54.8717 57.163 55.6409 56.5173L61.2564 51.6872C62.1025 50.964 63.3846 51.0415 64.1282 51.9196C64.4615 52.3071 64.641 52.8237 64.6154 53.3144L64.1538 66.694C64.1025 67.8046 63.2051 68.657 62.1025 68.6312C61.641 68.6053 61.2051 68.4504 60.8717 68.1404L58.1538 65.7125C57.3076 64.9634 55.9999 65.0409 55.2563 65.8933L55.2307 65.9191L53.8973 67.5205C53.1794 68.3987 53.2819 69.6902 54.1537 70.4392C54.1794 70.465 54.2307 70.4909 54.2563 70.5167L71.2821 83.018C72.2564 83.7671 73.6411 83.5605 74.3847 82.5789C74.6667 82.1915 74.8206 81.7266 74.8206 81.2358V40.0382C74.8206 38.8759 73.8975 37.946 72.7436 37.946C72.2564 37.946 71.7949 38.101 71.4359 38.411L57.5897 49.8275C56.7948 50.4732 55.6409 50.3699 54.9999 49.5692C54.9743 49.5434 54.9486 49.4917 54.923 49.4659C54.2307 48.5102 54.4614 47.1671 55.3845 46.4438L74.8719 31.7212C75.6667 31.1013 75.9231 30.0165 75.4616 29.1124L75.1795 28.5442C74.6667 27.511 73.4103 27.0719 72.3847 27.5885C72.2308 27.6918 72.1282 27.7435 72.0257 27.821Z" fill="url(#paint1_linear_6_86)"/>
<path d="M79.8203 22.1127L86.1281 17.3601C86.923 16.766 88.0512 16.921 88.6409 17.7217C88.8717 18.0317 88.9999 18.4191 88.9999 18.8065V28.57C88.9999 29.5773 88.205 30.378 87.205 30.378C86.8204 30.378 86.4358 30.2489 86.1024 29.9906L79.7947 25.083C78.9742 24.4373 78.846 23.275 79.4614 22.4485C79.5896 22.3193 79.6921 22.216 79.8203 22.1127Z" fill="url(#paint2_linear_6_86)"/>
</g>
<defs>
<linearGradient id="paint0_linear_6_86" x1="56.7954" y1="57.1838" x2="56.7954" y2="82.6062" gradientUnits="userSpaceOnUse">
<stop stop-color="#CF81FB"/>
<stop offset="1" stop-color="#94A3FF"/>
</linearGradient>
<linearGradient id="paint1_linear_6_86" x1="61.4811" y1="45.593" x2="61.4811" y2="63.8146" gradientUnits="userSpaceOnUse">
<stop stop-color="#CF81FB"/>
<stop offset="1" stop-color="#94A3FF"/>
</linearGradient>
<linearGradient id="paint2_linear_6_86" x1="84.1574" y1="21.3454" x2="84.1574" y2="25.6908" gradientUnits="userSpaceOnUse">
<stop stop-color="#CF81FB"/>
<stop offset="1" stop-color="#94A3FF"/>
</linearGradient>
<clipPath id="clip0_6_86">
<rect width="1512" height="982" rx="10" fill="white"/>
</clipPath>
</defs>
</svg>
