<svg width="1512" height="982" viewBox="1512 982" fill="none" xmlns="http://www.w3.org/2000/svg">
<rect width="1512" height="982" fill="#F5F5F5"/>
<g clip-path="url(#clip0_0_1)">
<rect width="1512" height="982" rx="10" fill="white"/>
<g opacity="0.6">
<rect x="531.789" y="-394" width="702" height="188" rx="94" transform="rotate(32.0592 531.789 -394)" fill="#E7C2FE"/>
<rect x="484.789" y="-202" width="702" height="188" rx="94" transform="rotate(32.0592 484.789 -202)" fill="#A8B4FF"/>
</g>
<g opacity="0.6">
<rect x="1290.79" y="582" width="702" height="188" rx="94" transform="rotate(32.0592 1290.79 582)" fill="#E7C2FE"/>
<rect x="1237.79" y="766" width="702" height="188" rx="94" transform="rotate(32.0592 1237.79 766)" fill="#A8B4FF"/>
</g>
<g opacity="0.6">
<rect x="-158.211" y="450" width="702" height="188" rx="94" transform="rotate(32.0592 -158.211 450)" fill="#A8B4FF"/>
<rect x="-211.211" y="634" width="702" height="188" rx="94" transform="rotate(32.0592 -211.211 634)" fill="#E7C2FE"/>
</g>
<path d="M35.4597 45.5751L21.8647 55.7216C20.9172 56.4478 20.7112 57.7965 21.4321 58.7718C21.5763 58.9585 21.7411 59.1245 21.9265 59.249L69.6121 92.303C70.7038 93.0708 72.2075 92.7803 72.9491 91.6806C73.2168 91.2863 73.361 90.8091 73.3816 90.3318L74.0202 35.6983C74.0202 34.9928 73.7112 34.3495 73.155 33.9138L68.541 30.3241C67.5728 29.5772 66.1927 29.7431 65.4512 30.7184C65.1422 31.1126 64.9774 31.5899 64.998 32.0878L65.1834 78.4838L38.9409 59.6018C37.9728 58.8963 37.7462 57.5475 38.4465 56.5723C38.5495 56.4271 38.6937 56.2818 38.8379 56.1573L42.7516 52.9411C43.6786 52.1734 43.8021 50.8039 43.0606 49.891C43.0194 49.8287 42.9782 49.7872 42.9164 49.725L39.0645 45.8448C38.0758 44.8696 36.5515 44.7451 35.4597 45.5751Z" fill="white"/>
<path d="M60.3837 26.6929L40.6298 41.6533C39.8676 42.2343 39.7028 43.334 40.2796 44.1018C40.3002 44.1433 40.3414 44.1847 40.3826 44.2262L45.1614 49.6004C45.697 50.2021 46.6033 50.2644 47.2213 49.7456L51.7324 45.8655C52.4121 45.2845 53.442 45.3467 54.0394 46.0522C54.3072 46.3635 54.4514 46.7784 54.4308 47.1727L54.06 57.921C54.0188 58.8132 53.2979 59.4979 52.4121 59.4772C52.0413 59.4564 51.6912 59.3319 51.4234 59.0829L49.2399 57.1325C48.5602 56.5307 47.5097 56.593 46.9123 57.2777L46.8917 57.2985L45.8206 58.5849C45.2438 59.2904 45.3262 60.3279 46.0266 60.9296C46.0472 60.9504 46.0884 60.9711 46.109 60.9919L59.7864 71.0347C60.5691 71.6364 61.6815 71.4704 62.2788 70.6819C62.5054 70.3707 62.629 69.9972 62.629 69.603V36.5074C62.629 35.5737 61.8874 34.8267 60.9605 34.8267C60.5691 34.8267 60.1984 34.9512 59.91 35.2002L48.7868 44.3715C48.1482 44.8902 47.2213 44.8072 46.7063 44.164C46.6857 44.1432 46.6651 44.1017 46.6445 44.081C46.0884 43.3133 46.2738 42.2343 47.0153 41.6533L62.6702 29.8261C63.3087 29.3281 63.5147 28.4566 63.144 27.7304L62.9174 27.2739C62.5054 26.4439 61.4961 26.0911 60.6721 26.5061C60.5485 26.5891 60.4661 26.6306 60.3837 26.6929Z" fill="white"/>
<path d="M66.6459 22.1072L71.7131 18.2893C72.3517 17.812 73.258 17.9365 73.7318 18.5798C73.9172 18.8288 74.0201 19.14 74.0201 19.4513V27.2946C74.0201 28.1038 73.3816 28.747 72.5783 28.747C72.2693 28.747 71.9603 28.6433 71.6925 28.4358L66.6253 24.4934C65.9661 23.9747 65.8631 23.0409 66.3575 22.3769C66.4605 22.2732 66.5429 22.1902 66.6459 22.1072Z" fill="white"/>
<path d="M122.246 69L134.216 42.4H139.08L151.088 69H145.92L135.622 45.022H137.598L127.338 69H122.246ZM127.756 62.844L129.086 58.968H143.45L144.78 62.844H127.756ZM155.99 69V42.4H167.618C170.506 42.4 173.04 42.9573 175.218 44.072C177.397 45.1867 179.094 46.732 180.31 48.708C181.526 50.684 182.134 53.0147 182.134 55.7C182.134 58.36 181.526 60.6907 180.31 62.692C179.094 64.668 177.397 66.2133 175.218 67.328C173.04 68.4427 170.506 69 167.618 69H155.99ZM160.93 64.82H167.39C169.392 64.82 171.114 64.44 172.558 63.68C174.028 62.92 175.155 61.856 175.94 60.488C176.751 59.12 177.156 57.524 177.156 55.7C177.156 53.8507 176.751 52.2547 175.94 50.912C175.155 49.544 174.028 48.48 172.558 47.72C171.114 46.96 169.392 46.58 167.39 46.58H160.93V64.82ZM188.905 69V42.4H192.971L204.599 61.818H202.471L213.909 42.4H217.975L218.013 69H213.339L213.301 49.734H214.289L204.561 65.96H202.357L192.477 49.734H193.617V69H188.905ZM226.718 69V42.4H231.658V69H226.718ZM240.373 69V42.4H244.439L261.121 62.882H259.107V42.4H264.009V69H259.943L243.261 48.518H245.275V69H240.373Z" fill="white"/>
</g>
<defs>
<clipPath id="clip0_0_1">
<rect width="1512" height="982" rx="10" fill="white"/>
</clipPath>
</defs>
</svg>
