<svg width="131" height="185" viewBox="0 0 131 185" fill="none" xmlns="http://www.w3.org/2000/svg">
<path d="M35.7265 68.1312L2.1365 93.2008C-0.204619 94.9951 -0.713558 98.3275 1.06773 100.737C1.42399 101.198 1.83114 101.609 2.28919 101.916L120.109 183.585C122.806 185.482 126.521 184.764 128.354 182.047C129.015 181.073 129.371 179.893 129.422 178.714L131 43.728C131 41.9849 130.237 40.3957 128.862 39.3191L117.462 30.4498C115.07 28.6042 111.66 29.0144 109.828 31.4239C109.065 32.398 108.658 33.5771 108.708 34.8076L109.166 149.441L44.3276 102.788C41.9356 101.045 41.3757 97.7123 43.1061 95.3027C43.3606 94.9439 43.7169 94.585 44.0731 94.2774L53.743 86.331C56.0332 84.4341 56.3386 81.0505 54.5064 78.7947C54.4046 78.6409 54.3028 78.5384 54.1501 78.3846L44.633 68.7976C42.19 66.3881 38.4239 66.0805 35.7265 68.1312Z" fill="url(#paint0_linear_0_14)"/>
<path d="M97.3084 21.478L48.5011 58.4416C46.618 59.8771 46.2108 62.5942 47.6359 64.4911C47.6868 64.5937 47.7885 64.6962 47.8903 64.7987L59.6977 78.0769C61.021 79.5637 63.2603 79.7175 64.7871 78.4358L75.9329 68.8488C77.6124 67.4134 80.1571 67.5672 81.633 69.3102C82.2946 70.0792 82.6509 71.1046 82.6 72.0787L81.6839 98.635C81.5821 100.84 79.8008 102.531 77.6124 102.48C76.6963 102.429 75.8311 102.121 75.1695 101.506L69.7747 96.6869C68.0952 95.2001 65.4996 95.3539 64.0237 97.0457L63.9728 97.097L61.3263 100.276C59.9013 102.019 60.1049 104.582 61.8353 106.069C61.8862 106.12 61.988 106.171 62.0389 106.223L95.8324 131.036C97.7664 132.523 100.515 132.112 101.991 130.164C102.55 129.395 102.856 128.472 102.856 127.498V45.7274C102.856 43.4203 101.024 41.5747 98.7334 41.5747C97.7664 41.5747 96.8503 41.8823 96.1378 42.4975L68.6551 65.1576C67.0773 66.4393 64.7871 66.2342 63.5148 64.6449C63.4639 64.5937 63.413 64.4911 63.3621 64.4399C61.988 62.543 62.446 59.8771 64.2782 58.4416L102.958 29.2194C104.535 27.9889 105.044 25.8357 104.128 24.0414L103.568 22.9135C102.55 20.8628 100.057 19.9913 98.0209 21.0166C97.7155 21.2217 97.5119 21.3242 97.3084 21.478Z" fill="url(#paint1_linear_0_14)"/>
<path d="M112.78 10.1479L125.3 0.71473C126.877 -0.464413 129.117 -0.156811 130.287 1.43247C130.745 2.04767 131 2.81668 131 3.58569V22.9647C131 24.9641 129.422 26.5534 127.437 26.5534C126.674 26.5534 125.91 26.297 125.249 25.7843L112.729 16.0436C111.1 14.7619 110.846 12.4549 112.067 10.8143C112.322 10.558 112.525 10.3529 112.78 10.1479Z" fill="url(#paint2_linear_0_14)"/>
<defs>
<linearGradient id="paint0_linear_0_14" x1="67.0788" y1="79.7588" x2="67.0788" y2="130.218" gradientUnits="userSpaceOnUse">
<stop stop-color="#CF81FB"/>
<stop offset="1" stop-color="#94A3FF"/>
</linearGradient>
<linearGradient id="paint1_linear_0_14" x1="76.379" y1="56.7527" x2="76.379" y2="92.9199" gradientUnits="userSpaceOnUse">
<stop stop-color="#CF81FB"/>
<stop offset="1" stop-color="#94A3FF"/>
</linearGradient>
<linearGradient id="paint2_linear_0_14" x1="121.388" y1="8.62492" x2="121.388" y2="17.2498" gradientUnits="userSpaceOnUse">
<stop stop-color="#CF81FB"/>
<stop offset="1" stop-color="#94A3FF"/>
</linearGradient>
</defs>
</svg>
