<svg width="310" height="436" viewBox="0 0 310 436" fill="none" xmlns="http://www.w3.org/2000/svg">
<path d="M84.3592 160.875L5.04482 220.07C-0.483156 224.307 -1.68489 232.176 2.52118 237.865C3.36239 238.955 4.32378 239.923 5.40534 240.649L283.607 433.489C289.976 437.968 298.748 436.273 303.075 429.857C304.637 427.557 305.478 424.773 305.598 421.989L309.324 103.253C309.324 99.1368 307.521 95.3841 304.276 92.8419L277.358 71.8995C271.709 67.5416 263.658 68.51 259.332 74.1996C257.529 76.4996 256.568 79.2838 256.688 82.1892L257.769 352.867L104.668 242.707C99.0203 238.591 97.6984 230.723 101.784 225.033C102.385 224.186 103.226 223.339 104.068 222.612L126.901 203.849C132.308 199.37 133.029 191.38 128.703 186.054C128.463 185.691 128.222 185.449 127.862 185.085L105.39 162.448C99.6212 156.759 90.7284 156.032 84.3592 160.875Z" fill="url(#paint0_linear_0_3)"/>
<path d="M229.768 50.7149L114.522 137.995C110.076 141.385 109.114 147.801 112.479 152.28C112.599 152.522 112.84 152.764 113.08 153.006L140.96 184.359C144.085 187.87 149.372 188.233 152.978 185.206L179.296 162.569C183.261 159.18 189.27 159.543 192.755 163.659C194.317 165.474 195.158 167.896 195.038 170.196L192.875 232.902C192.635 238.107 188.429 242.102 183.261 241.981C181.098 241.86 179.055 241.133 177.493 239.681L164.755 228.302C160.789 224.791 154.66 225.154 151.175 229.149L151.055 229.27L144.806 236.776C141.441 240.891 141.922 246.944 146.008 250.455C146.128 250.576 146.368 250.697 146.488 250.818L226.283 309.408C230.85 312.919 237.339 311.95 240.824 307.35C242.146 305.534 242.867 303.355 242.867 301.055V107.974C242.867 102.526 238.541 98.1682 233.133 98.1682C230.85 98.1682 228.687 98.8945 227.004 100.347L162.111 153.853C158.385 156.88 152.978 156.395 149.973 152.643C149.853 152.522 149.733 152.28 149.613 152.158C146.368 147.679 147.45 141.385 151.776 137.995L243.108 68.9941C246.833 66.0888 248.035 61.0045 245.872 56.7676L244.55 54.1044C242.146 49.2622 236.258 47.2043 231.451 49.6254C230.73 50.1096 230.249 50.3517 229.768 50.7149Z" fill="url(#paint1_linear_0_3)"/>
<path d="M266.301 23.9617L295.864 1.68766C299.589 -1.0966 304.877 -0.370269 307.641 3.38242C308.722 4.83507 309.323 6.65089 309.323 8.4667V54.2253C309.323 58.9464 305.598 62.6991 300.911 62.6991C299.109 62.6991 297.306 62.0938 295.744 60.8832L266.181 37.8829C262.335 34.8566 261.735 29.4091 264.619 25.5354C265.22 24.9301 265.7 24.4459 266.301 23.9617Z" fill="url(#paint2_linear_0_3)"/>
<defs>
<linearGradient id="paint0_linear_0_3" x1="158.39" y1="188.33" x2="158.39" y2="307.478" gradientUnits="userSpaceOnUse">
<stop stop-color="#CF81FB"/>
<stop offset="1" stop-color="#94A3FF"/>
</linearGradient>
<linearGradient id="paint1_linear_0_3" x1="180.349" y1="134.007" x2="180.349" y2="219.407" gradientUnits="userSpaceOnUse">
<stop stop-color="#CF81FB"/>
<stop offset="1" stop-color="#94A3FF"/>
</linearGradient>
<linearGradient id="paint2_linear_0_3" x1="286.628" y1="20.3656" x2="286.628" y2="40.7311" gradientUnits="userSpaceOnUse">
<stop stop-color="#CF81FB"/>
<stop offset="1" stop-color="#94A3FF"/>
</linearGradient>
</defs>
</svg>
