<svg width="1127" height="982" viewBox="0 0 1127 982" fill="none" xmlns="http://www.w3.org/2000/svg">
<rect width="1107" height="983" fill="white"/>
<g opacity="0.4">
<rect x="-158.21" y="450" width="702" height="188" rx="94" transform="rotate(32.0592 -158.21 450)" fill="#A8B4FF"/>
<rect x="-211.21" y="634" width="702" height="188" rx="94" transform="rotate(32.0592 -211.21 634)" fill="#E7C2FE"/>
</g>
<g opacity="0.4">
<rect x="531.79" y="-394" width="702" height="188" rx="94" transform="rotate(32.0592 531.79 -394)" fill="#E7C2FE"/>
<rect x="484.79" y="-202" width="702" height="188" rx="94" transform="rotate(32.0592 484.79 -202)" fill="#A8B4FF"/>
</g>
<g opacity="0.1">
<path d="M532.359 440.875L453.045 500.07C447.517 504.307 446.315 512.176 450.521 517.865C451.362 518.955 452.324 519.923 453.405 520.649L731.607 713.489C737.976 717.968 746.748 716.273 751.075 709.857C752.637 707.557 753.478 704.773 753.598 701.989L757.324 383.253C757.324 379.137 755.521 375.384 752.276 372.842L725.358 351.9C719.709 347.542 711.658 348.51 707.332 354.2C705.529 356.5 704.568 359.284 704.688 362.189L705.769 632.867L552.668 522.707C547.02 518.591 545.698 510.723 549.784 505.033C550.385 504.186 551.226 503.339 552.068 502.612L574.901 483.849C580.308 479.37 581.029 471.38 576.703 466.054C576.463 465.691 576.222 465.449 575.862 465.085L553.39 442.448C547.621 436.759 538.728 436.032 532.359 440.875Z" fill="url(#paint0_linear_516_223)"/>
<path d="M677.768 330.715L562.522 417.995C558.076 421.385 557.114 427.801 560.479 432.28C560.599 432.522 560.84 432.764 561.08 433.006L588.96 464.359C592.085 467.87 597.372 468.233 600.978 465.206L627.296 442.569C631.261 439.18 637.27 439.543 640.755 443.659C642.317 445.474 643.158 447.896 643.038 450.196L640.875 512.902C640.635 518.107 636.429 522.102 631.261 521.981C629.098 521.86 627.055 521.133 625.493 519.681L612.755 508.302C608.789 504.791 602.66 505.154 599.175 509.149L599.055 509.27L592.806 516.776C589.441 520.891 589.922 526.944 594.008 530.455C594.128 530.576 594.368 530.697 594.488 530.818L674.283 589.408C678.85 592.919 685.339 591.95 688.824 587.35C690.146 585.534 690.867 583.355 690.867 581.055V387.974C690.867 382.526 686.541 378.168 681.133 378.168C678.85 378.168 676.687 378.895 675.004 380.347L610.111 433.853C606.385 436.88 600.978 436.395 597.973 432.643C597.853 432.522 597.733 432.28 597.613 432.158C594.368 427.679 595.45 421.385 599.776 417.995L691.108 348.994C694.833 346.089 696.035 341.005 693.872 336.768L692.55 334.104C690.146 329.262 684.258 327.204 679.451 329.625C678.73 330.11 678.249 330.352 677.768 330.715Z" fill="url(#paint1_linear_516_223)"/>
<path d="M714.301 303.962L743.864 281.688C747.589 278.903 752.877 279.63 755.641 283.382C756.722 284.835 757.323 286.651 757.323 288.467V334.225C757.323 338.946 753.598 342.699 748.911 342.699C747.108 342.699 745.306 342.094 743.744 340.883L714.181 317.883C710.335 314.857 709.734 309.409 712.619 305.535C713.219 304.93 713.7 304.446 714.301 303.962Z" fill="url(#paint2_linear_516_223)"/>
</g>
<defs>
<linearGradient id="paint0_linear_516_223" x1="606.39" y1="468.33" x2="606.39" y2="587.478" gradientUnits="userSpaceOnUse">
<stop stop-color="#CF81FB"/>
<stop offset="1" stop-color="#94A3FF"/>
</linearGradient>
<linearGradient id="paint1_linear_516_223" x1="628.349" y1="414.007" x2="628.349" y2="499.407" gradientUnits="userSpaceOnUse">
<stop stop-color="#CF81FB"/>
<stop offset="1" stop-color="#94A3FF"/>
</linearGradient>
<linearGradient id="paint2_linear_516_223" x1="734.628" y1="300.366" x2="734.628" y2="320.731" gradientUnits="userSpaceOnUse">
<stop stop-color="#CF81FB"/>
<stop offset="1" stop-color="#94A3FF"/>
</linearGradient>
</defs>
</svg>
